PathFileType  4	(X/Y/Z) /Users/kristensteudel/Documents/NMBL_Research/BertecForceProcessing/anc_files/
DataRate	CameraRate	NumFrames	NumMarkers	Units	OrigDataRate	OrigDataStartFrame	OrigNumFrames
  200.0		  200.0		    6		     46		 mm	  200.0	      1	    724
Frame#	Time	r_knee			r_shank_antsup			r_ankle			r_calc			r_5meta			r_toe			L_knee			L_shank_antsup			L_ankle			L_calc			L_5meta			L_toe			r_sh2			r_sh3			r_sh4			L_sh2			L_sh3			r_thigh1			r_thigh2			r_thigh3			r_thigh4			r_thigh5			L_thigh1			L_thigh2			L_thigh3			L_thigh4			r.ASIS			r.PSIS			L.ASIS			L.PSIS			C7			R_Shoulder			L_Shoulder			Sternum			R_humerus			R_elbow_med			R_elbow_lat			R_forearm			R_wrist_radius			R_wrist_ulna			L_humerus			L_elbow_med			L_elbow_lat			L_forearm			L_wrist_radius			L_wrist_ulna			
		X1	Y1	Z1	X2	Y2	Z2	X3	Y3	Z3	X4	Y4	Z4	X5	Y5	Z5	X6	Y6	Z6	X7	Y7	Z7	X8	Y8	Z8	X9	Y9	Z9	X10	Y10	Z10	X11	Y11	Z11	X12	Y12	Z12	X13	Y13	Z13	X14	Y14	Z14	X15	Y15	Z15	X16	Y16	Z16	X17	Y17	Z17	X18	Y18	Z18	X19	Y19	Z19	X20	Y20	Z20	X21	Y21	Z21	X22	Y22	Z22	X23	Y23	Z23	X24	Y24	Z24	X25	Y25	Z25	X26	Y26	Z26	X27	Y27	Z27	X28	Y28	Z28	X29	Y29	Z29	X30	Y30	Z30	X31	Y31	Z31	X32	Y32	Z32	X33	Y33	Z33	X34	Y34	Z34	X35	Y35	Z35	X36	Y36	Z36	X37	Y37	Z37	X38	Y38	Z38	X39	Y39	Z39	X40	Y40	Z40	X41	Y41	Z41	X42	Y42	Z42	X43	Y43	Z43	X44	Y44	Z44	X45	Y45	Z45	X46	Y46	Z46	

1	0.00000	855.433	487.524	-173.397	823.417	367.612	-180.648	604.179	132.618	-238.584	523.163	127.172	-306.661	678.244	33.835	-198.069	732.047	47.462	-254.775	1059.323	544.767	-471.489	967.630	476.664	-471.514	655.357	441.099	-439.300	604.550	480.320	-386.311	656.248	279.500	-470.435	680.269	248.361	-401.841	752.978	272.595	-199.207	764.010	404.724	-155.337	688.350	322.704	-185.061	949.227	563.916	-482.854	831.884	529.841	-469.944	946.590	705.248	-135.125	932.941	593.424	-162.564	886.642	563.031	-149.547	834.002	707.479	-117.049	828.759	594.632	-150.314	1046.750	773.741	-463.747	1104.605	647.073	-450.134	950.994	730.501	-519.209	1009.551	606.218	-484.603	940.430	982.511	-178.492	733.033	1046.071	-253.430	922.863	974.290	-451.941	728.006	1039.297	-356.812	852.142	1528.375	-304.434	898.740	1492.453	-113.982	900.457	1500.721	-497.130	1005.669	1412.452	-311.147	827.746	1273.075	-34.428	710.235	1166.994	-83.439	715.707	1200.412	2.176	889.900	1158.629	-21.101	993.068	1131.204	-50.230	977.208	1086.420	-26.976	783.729	1290.242	-590.507	647.856	1219.058	-547.106	690.708	1251.812	-628.041	813.771	1137.326	-594.136	899.661	1106.091	-519.380	869.864	1053.939	-562.406
2	0.00500	838.149	489.892	-173.207	803.356	370.356	-179.509	580.858	137.540	-237.427	500.331	135.812	-305.401	651.804	34.764	-197.810	705.458	47.584	-254.651	1068.453	554.963	-472.066	980.243	480.779	-471.432	670.035	425.201	-438.352	617.243	460.494	-384.534	682.197	264.303	-470.114	708.921	234.053	-402.871	731.247	276.916	-197.494	744.696	408.753	-154.697	667.430	328.456	-184.788	956.683	566.954	-482.047	841.948	525.502	-469.503	938.908	703.754	-136.112	920.635	592.443	-163.218	873.408	563.786	-149.542	826.594	710.510	-116.911	816.519	597.612	-150.470	1049.807	783.300	-464.343	1110.561	658.419	-450.168	955.254	737.716	-519.657	1017.328	614.707	-485.001	942.129	983.726	-179.549	734.031	1048.572	-252.095	922.530	979.839	-452.943	728.499	1042.445	-355.437	851.318	1531.591	-303.921	900.454	1495.910	-114.782	895.733	1504.897	-497.780	1004.860	1416.090	-314.024	832.442	1276.649	-33.902	714.345	1169.784	-80.991	721.399	1203.306	4.848	894.934	1164.308	-21.480	998.235	1138.420	-52.674	983.714	1093.610	-29.491	777.420	1295.581	-591.276	642.234	1224.546	-544.841	683.934	1257.198	-626.514	807.606	1143.334	-593.909	894.528	1112.197	-520.396	863.996	1059.939	-562.584
3	0.01000	821.319	493.161	-173.120	783.815	374.305	-178.607	558.293	143.324	-236.188	478.719	144.855	-304.019	625.638	36.161	-197.207	679.320	47.830	-254.563	1076.709	564.601	-472.865	992.205	484.999	-471.649	686.513	408.691	-436.964	631.166	440.697	-383.066	708.958	249.507	-469.672	739.076	223.470	-401.458	709.866	281.976	-195.985	725.730	413.991	-154.361	647.519	334.483	-183.715	963.378	569.431	-481.345	851.382	520.775	-469.228	931.218	703.000	-137.286	907.844	592.086	-164.171	860.113	565.407	-149.438	819.482	714.144	-117.067	804.283	602.029	-150.912	1052.648	793.142	-465.111	1116.671	669.593	-450.091	959.684	744.242	-520.075	1024.163	623.283	-485.737	943.870	985.196	-180.090	735.686	1051.441	-250.330	922.355	985.409	-453.900	729.170	1045.533	-353.980	850.705	1534.992	-305.282	902.080	1499.592	-115.704	890.996	1509.544	-498.332	1004.483	1420.148	-316.844	836.750	1280.529	-33.559	718.182	1173.144	-78.749	726.528	1206.345	7.195	899.814	1169.439	-22.712	1002.867	1145.864	-55.423	989.268	1100.797	-31.844	771.303	1300.928	-590.826	637.120	1229.855	-542.767	677.320	1262.599	-624.751	801.417	1149.621	-593.607	889.332	1118.741	-521.465	858.135	1065.792	-562.575
4	0.01500	804.819	497.611	-173.178	764.822	379.225	-177.442	536.426	149.507	-234.641	457.958	154.660	-302.519	599.403	37.441	-196.957	653.350	47.973	-254.395	1084.136	573.943	-473.772	1003.645	488.851	-472.219	703.314	392.113	-435.571	644.477	421.849	-381.761	736.763	235.162	-468.964	768.889	211.168	-401.171	689.416	288.071	-194.412	707.348	420.327	-154.026	627.468	342.071	-183.727	969.114	571.511	-480.626	861.034	514.926	-468.652	923.656	702.933	-138.620	895.612	593.014	-165.333	845.822	569.681	-153.516	812.695	718.285	-116.942	792.736	606.780	-149.968	1055.252	802.223	-465.839	1122.614	680.531	-450.735	963.317	751.252	-520.889	1030.608	631.593	-486.693	945.848	986.756	-180.580	737.259	1054.282	-249.056	922.650	991.221	-454.715	730.105	1048.898	-352.590	849.922	1538.675	-305.313	903.155	1503.415	-116.026	885.855	1514.419	-499.035	1003.925	1424.476	-319.582	840.831	1284.556	-33.168	721.595	1176.926	-76.634	731.592	1209.992	9.504	904.460	1175.426	-23.739	1007.507	1153.516	-58.448	995.072	1108.334	-35.041	765.210	1306.313	-590.285	631.403	1235.616	-540.534	670.942	1268.246	-622.880	795.344	1156.187	-593.291	884.366	1125.561	-522.375	852.561	1072.332	-562.839
5	0.02000	788.847	502.517	-172.599	746.438	385.079	-176.111	515.561	156.264	-232.902	438.564	164.994	-300.927	573.773	39.254	-196.375	626.786	48.000	-253.858	1090.895	582.727	-474.626	1014.194	492.177	-473.167	720.864	375.740	-434.613	662.292	400.256	-379.809	765.328	221.496	-468.042	799.697	199.660	-400.525	669.873	294.899	-192.493	689.489	427.492	-153.792	608.679	349.942	-183.005	973.831	572.334	-480.525	869.989	508.726	-468.192	916.092	703.698	-140.356	884.082	595.071	-164.837	833.874	572.416	-154.475	806.115	722.880	-116.939	781.861	612.056	-149.345	1057.773	811.053	-466.584	1127.166	690.370	-450.935	966.729	758.312	-521.495	1036.008	639.725	-487.535	947.951	988.443	-181.216	739.386	1057.070	-246.618	923.382	997.033	-455.186	731.221	1052.175	-351.089	849.250	1542.663	-305.093	904.416	1507.359	-116.636	881.507	1518.823	-498.941	1001.085	1428.239	-322.451	844.761	1288.752	-33.019	724.823	1181.029	-74.487	736.387	1213.910	11.725	908.910	1181.731	-24.825	1011.287	1161.195	-61.631	1000.240	1115.997	-37.666	759.260	1311.846	-589.719	626.181	1241.108	-538.035	664.393	1273.936	-621.070	789.473	1162.961	-592.909	879.462	1132.519	-523.313	847.495	1079.280	-562.959
6	0.02500	773.265	508.316	-171.912	728.640	391.811	-174.460	495.858	163.522	-231.008	420.433	175.874	-299.818	548.180	41.056	-195.756	600.827	48.371	-253.306	1096.449	590.555	-475.480	1024.343	494.722	-474.257	739.193	359.566	-433.264	679.580	380.020	-378.350	794.676	208.419	-467.023	830.254	189.287	-400.095	651.015	302.373	-190.442	672.038	434.985	-153.245	590.469	358.274	-182.375	979.060	572.296	-480.018	879.506	501.647	-467.366	909.034	705.273	-141.969	873.054	597.944	-161.346	822.554	575.877	-155.766	800.022	727.618	-116.900	771.597	617.683	-148.749	1060.292	819.177	-467.547	1131.163	699.664	-451.600	969.943	764.766	-522.313	1040.967	647.368	-488.571	950.099	990.387	-181.858	741.342	1060.079	-245.625	923.689	1002.609	-455.634	732.451	1055.803	-349.847	848.547	1546.488	-305.342	905.668	1511.407	-117.346	877.127	1523.162	-498.777	999.928	1432.632	-325.055	848.508	1293.094	-32.890	727.972	1185.271	-72.196	740.885	1217.981	13.863	912.898	1188.279	-25.853	1014.710	1168.905	-64.827	1004.774	1123.759	-40.520	753.621	1317.391	-589.067	620.205	1247.345	-535.167	658.154	1279.647	-619.139	783.721	1169.792	-592.526	874.906	1139.610	-524.256	842.484	1086.307	-563.185
